<?xml version="1.0" encoding="utf-8"?>
<!-- Generator: Adobe Illustrator 18.0.0, SVG Export Plug-In . SVG Version: 6.00 Build 0)  -->
<!DOCTYPE svg PUBLIC "-//W3C//DTD SVG 1.1//EN" "http://www.w3.org/Graphics/SVG/1.1/DTD/svg11.dtd">
<svg version="1.1" id="Layer_1" xmlns="http://www.w3.org/2000/svg" xmlns:xlink="http://www.w3.org/1999/xlink" x="0px" y="0px"
	 viewBox="0 0 266.5 62.7" enable-background="new 0 0 266.5 62.7" xml:space="preserve">
<g>
	<path fill="#231F20" d="M40.1,46.9c4.6-2.9,9.2-6.3,8.9-10.1c-0.4-2.3-2.7-3.6-7.5-3.6c-3.1,0-13.9,0.7-13.9,0.7
		c-2.5,0.2-17.5,0.9-19.1-6.2c-0.2-0.8-0.2-1.6-0.1-2.4l-6,6l18.3,18.3l0-0.1c3.9-1.9,8.8-4.6,11.6-8.4c2-3.4-0.2-4.9-3.7-5.6
		c5.7-0.5,7.9,1,8.3,2.2c1.2,4-6.5,9.4-15.5,12.6l1.4,1.4c5.8-2.3,11.8-5.4,16-9.4c3.4-3.9,1.6-6.9-3.7-7.2
		c8.9-1.2,10.3,2.4,10.3,2.4c1.5,4.5-9.2,11.2-21.5,15.2l1.1,1.1c2.2-0.7,4.4-1.4,6.6-2.3C34.6,50,37.6,48.5,40.1,46.9z"/>
	<path fill="#231F20" d="M31.7,60.5l11.7-11.7c-5.3,2.6-11.6,4.7-17.3,6.2L31.7,60.5z"/>
	<path fill="#231F20" d="M22.6,15.9c-4.6,2.9-8.7,5.8-8,9.7c0.7,2.1,3.2,3.6,8,3.7c3.1,0,13.1-0.3,13.1-0.3c2.5-0.2,8.5-0.3,9-0.3
		c5.3-0.1,10.2,2.3,10.4,6.6c0.1,0.7,0,1.3-0.1,1.9l6-6L42.9,13.1c-3.8,1.9-8.6,4.8-11.4,8.6c-2,3.4,0.2,4.9,3.7,5.6
		c-5.7,0.5-7.9-1-8.3-2.2c-1.2-3.9,7.1-9.4,15.3-12.7L41,11.1c-5.5,2.3-11.8,5.3-15.9,9.2c-3.4,3.9-1.6,7,3.7,7.3
		c-8.9,1.2-10.3-2.4-10.3-2.4c-1.5-4.5,8.9-10.8,21.5-15.1l-1.2-1.2c-2.3,0.7-4.6,1.4-6.8,2.4C28.8,12.7,25.1,14.3,22.6,15.9z"/>
	<path fill="#231F20" d="M31.7,1.8l-12,12c5.4-2.6,11.9-4.7,17.8-6.2L31.7,1.8z"/>
	<path fill="#FFFFFF" d="M18.5,25.2c0,0,1.4,3.7,10.3,2.4c-5.3-0.3-7.1-3.4-3.7-7.3c4.1-3.9,10.4-6.9,15.9-9.2l-1-1
		C27.4,14.4,17.1,20.7,18.5,25.2z"/>
	<path fill="#FFFFFF" d="M26.9,25c0.4,1.2,2.6,2.7,8.3,2.2c-3.5-0.8-5.7-2.2-3.7-5.6c2.8-3.8,7.6-6.6,11.4-8.6l-0.7-0.7
		C34,15.6,25.7,21.1,26.9,25z"/>
	<path fill="#FFFFFF" d="M45.3,37.3c0,0-1.4-3.7-10.3-2.4c5.3,0.3,7.1,3.3,3.7,7.2c-4.2,4-10.2,7.1-16,9.4l1,1
		C36.1,48.5,46.7,41.9,45.3,37.3z"/>
	<path fill="#FFFFFF" d="M36.9,37.5c-0.4-1.2-2.6-2.7-8.3-2.2c3.5,0.7,5.7,2.2,3.7,5.6c-2.8,3.9-7.7,6.5-11.6,8.4l0,0.1l0.7,0.7
		C30.4,46.9,38.1,41.5,36.9,37.5z"/>
	<line fill="#FFFFFF" x1="55.1" y1="37.1" x2="43.5" y2="48.8"/>
	<path fill="#FFFFFF" d="M55.2,35.2c-0.3-4.3-5.1-6.7-10.4-6.6c-0.5,0-6.5,0.1-9,0.3c0,0-10,0.3-13.1,0.3c-4.8,0-7.3-1.6-8-3.7
		c-0.7-3.9,3.4-6.8,8-9.7c2.5-1.6,6.2-3.2,9.4-4.6c2.2-1,4.5-1.7,6.8-2.4l-1.3-1.3c-5.9,1.5-12.4,3.6-17.8,6.2L8.3,25.2
		c-0.1,0.8,0,1.6,0.1,2.4c1.6,7.1,16.6,6.4,19.1,6.2c0,0,10.8-0.7,13.9-0.7c4.8,0,7.1,1.4,7.5,3.6c0.3,3.8-4.3,7.2-8.9,10.1
		c-2.5,1.6-5.5,3.1-8.7,4.5c-2.2,0.9-4.3,1.6-6.6,2.3l1.3,1.3c5.7-1.5,12-3.5,17.3-6.2l11.6-11.6C55.2,36.5,55.2,35.8,55.2,35.2z"/>
</g>
<g>
	<g>
		<path fill="#231F20" d="M81.5,54.5c-13.8,0-16.9-6.4-16.9-11.8c0-7.4,6-12.1,15.1-12.1c6.1,0,10.6,2,13,5.2
			c2.4,3.1,1.6,9.3,1.6,9.3H70.5c1.2,3,4.6,4.6,10.7,4.6c5.3,0,10.2-1.2,11.3-1.5l1-0.3l0.8,4.3C94.4,52.1,87.3,54.5,81.5,54.5z
			 M70.3,40.7h18.9c0.1-1-0.1-1.8-0.7-2.6c-1.3-1.7-4.5-2.7-8.7-2.7C76,35.5,71.4,36.4,70.3,40.7z"/>
	</g>
	<g>
		<path fill="#231F20" d="M114.8,54.5c-9.2-0.4-17.4-3.6-17.4-3.6l1.2-4.3l1,0.3c5.5,1.8,10.5,2.9,15.7,2.9c5.3,0,10.9-1.4,10.9-4.7
			c0-2.6-3.3-3-10.3-3.3l-0.5,0c-7.6-0.4-17.1-0.9-17.1-8.8c0-3.8,2.8-9.3,15.9-9.3c6.5-0.3,16,2.6,16,2.6l-1,4.4l-1-0.2
			c-4.5-1.1-9.7-1.9-14.4-1.9c-2.4,0-9.6,0.5-9.6,4.4c0,3.1,4.4,3.6,11.6,4c7.3,0.3,16.4,0.7,16.4,8.3C132,51,125.7,54.5,114.8,54.5
			z"/>
	</g>
	<g>
		<path fill="#231F20" d="M140.5,53.9h-5.1V32.3l5.1-0.6V53.9z M140.5,29l-5.1,0.7v-6l5.1-0.7V29z"/>
	</g>
	<g>
		<path fill="#231F20" d="M150.6,53.9h-5.1V21.3l5.1-0.8V53.9z"/>
	</g>
	<g>
		<path fill="#231F20" d="M160.7,53.9h-5.1V32.3l5.1-0.6V53.9z M160.7,29l-5.1,0.7v-6l5.1-0.7V29z"/>
	</g>
	<g>
		<path fill="#231F20" d="M179.9,54.5c-10.3,0-16.3-4.4-16.3-12c0-7.6,5.9-11.9,16.3-11.9c6.1,0,11.4,2.6,11.4,2.6l-1,4.4
			c0,0-4.5-2.3-10.3-2.3c-7.6,0-10.7,2.5-10.7,7.2c0,4.7,3,7,10.5,7c4.4,0,8.1-0.9,9.6-1.4l1-0.3l1,4.5
			C191.4,52.3,186.1,54.5,179.9,54.5z"/>
	</g>
	<g>
		<path fill="#231F20" d="M210.1,54.5c-9.9,0-16.3-4.7-16.3-12c0-7.3,6.4-11.9,16.3-11.9c9.9,0,16.3,4.7,16.3,11.9
			C226.4,49.8,220,54.5,210.1,54.5z M210.1,35.5c-6.7,0-10.5,2.9-10.5,7.3c0,4.3,3.8,6.8,10.5,6.8c6.6,0,10.5-2.7,10.5-7.1
			C220.6,38.1,216.8,35.5,210.1,35.5z"/>
	</g>
	<path fill="#231F20" d="M262,31.1c1.7,0,3,1.3,3,3c0,1.7-1.3,3-3,3c-1.7,0-3-1.3-3-3C259,32.4,260.3,31.1,262,31.1L262,31.1z
		 M262,31.6c-1.3,0-2.4,1.1-2.4,2.6c0,1.4,1.1,2.6,2.4,2.6c1.3,0,2.4-1.1,2.4-2.6C264.4,32.7,263.3,31.6,262,31.6L262,31.6z
		 M261.4,35.9h-0.5v-3.4c0.3,0,0.6-0.1,1-0.1c0.5,0,0.8,0.1,1,0.3c0.2,0.1,0.3,0.4,0.3,0.7c0,0.4-0.3,0.7-0.7,0.8v0
		c0.3,0.1,0.5,0.3,0.6,0.8c0.1,0.5,0.2,0.7,0.2,0.8h-0.6c-0.1-0.1-0.2-0.4-0.2-0.9c-0.1-0.4-0.3-0.6-0.7-0.6h-0.4V35.9z M261.4,34
		h0.4c0.4,0,0.8-0.2,0.8-0.6c0-0.3-0.2-0.6-0.8-0.6c-0.2,0-0.3,0-0.4,0V34z"/>
</g>
<path fill="#231F20" d="M244.6,30.6c-3.1,0-6.4,0.7-9.7,2v-2l-2.2,0.3l-2.8,0.3v0.1l0,0v22.5l0,0l5.1,0V37.4
	c3.7-1.3,6.8-1.9,9.5-1.9c5.4,0,7.6,2.3,7.6,6.9v11.5h5.1V42.4C257.1,34.9,252.5,30.6,244.6,30.6z"/>
</svg>
