<?xml version="1.0" encoding="utf-8"?>
<!-- Generator: Adobe Illustrator 18.0.0, SVG Export Plug-In . SVG Version: 6.00 Build 0)  -->
<!DOCTYPE svg PUBLIC "-//W3C//DTD SVG 1.1//EN" "http://www.w3.org/Graphics/SVG/1.1/DTD/svg11.dtd">
<svg version="1.1" id="Layer_1" xmlns="http://www.w3.org/2000/svg" xmlns:xlink="http://www.w3.org/1999/xlink" x="0px" y="0px"
	 viewBox="0 0 268.7 63.3" enable-background="new 0 0 268.7 63.3" xml:space="preserve">
<g>
	<path fill="#FFFFFF" d="M40.9,47.5c4.6-2.9,9.2-6.3,8.9-10.1c-0.4-2.3-2.7-3.6-7.5-3.6c-3.1,0-13.9,0.7-13.9,0.7
		c-2.5,0.2-17.5,0.9-19.1-6.2c-0.2-0.8-0.2-1.6-0.1-2.4l-6,6l18.3,18.3l0-0.1c3.9-1.9,8.8-4.6,11.6-8.4c2-3.4-0.2-4.9-3.7-5.6
		c5.7-0.5,7.9,1,8.3,2.2c1.2,4-6.5,9.4-15.5,12.6l1.4,1.4c5.8-2.3,11.8-5.4,16-9.4c3.4-3.9,1.6-6.9-3.7-7.2
		c8.9-1.2,10.3,2.4,10.3,2.4c1.5,4.5-9.2,11.2-21.5,15.2l1.1,1.1c2.2-0.7,4.4-1.4,6.6-2.3C35.4,50.6,38.4,49.1,40.9,47.5z"/>
	<path fill="#FFFFFF" d="M32.5,61.2l11.7-11.7C39,52.1,32.7,54.1,27,55.6L32.5,61.2z"/>
	<path fill="#FFFFFF" d="M23.4,16.6c-4.6,2.9-8.7,5.8-8,9.7c0.7,2.1,3.2,3.6,8,3.7c3.1,0,13.1-0.3,13.1-0.3c2.5-0.2,8.5-0.3,9-0.3
		c5.3-0.1,10.2,2.3,10.4,6.6c0.1,0.7,0,1.3-0.1,1.9l6-6L43.8,13.7c-3.8,1.9-8.6,4.8-11.4,8.6c-2,3.4,0.2,4.9,3.7,5.6
		c-5.7,0.5-7.9-1-8.3-2.2C26.6,21.8,34.9,16.2,43,13l-1.2-1.2C36.3,14.1,30,17.1,25.9,21c-3.4,3.9-1.6,7,3.7,7.3
		c-8.9,1.2-10.3-2.4-10.3-2.4c-1.5-4.5,8.9-10.8,21.5-15.1l-1.2-1.2C37.3,10.3,35,11,32.8,12C29.6,13.4,25.9,15,23.4,16.6z"/>
	<path fill="#FFFFFF" d="M32.5,2.5l-12,12c5.4-2.6,11.9-4.7,17.8-6.2L32.5,2.5z"/>
</g>
<g>
	<g>
		<path fill="#FFFFFF" d="M82.3,55.2c-13.8,0-16.9-6.4-16.9-11.8c0-7.4,6-12.1,15.1-12.1c6.1,0,10.6,2,13,5.2
			c2.4,3.1,1.6,9.3,1.6,9.3H71.3c1.2,3,4.6,4.6,10.7,4.6c5.3,0,10.2-1.2,11.3-1.5l1-0.3l0.8,4.3C95.2,52.8,88.1,55.2,82.3,55.2z
			 M71.2,41.4h18.9c0.1-1-0.1-1.8-0.7-2.6c-1.3-1.7-4.5-2.7-8.7-2.7C76.8,36.1,72.2,37.1,71.2,41.4z"/>
	</g>
	<g>
		<path fill="#FFFFFF" d="M115.6,55.2c-9.2-0.4-17.4-3.6-17.4-3.6l1.2-4.3l1,0.3c5.5,1.8,10.5,2.9,15.7,2.9c5.3,0,10.9-1.4,10.9-4.7
			c0-2.6-3.3-3-10.3-3.3l-0.5,0C108.5,42,99,41.6,99,33.6c0-3.8,2.8-9.3,15.9-9.3c6.5-0.3,16,2.6,16,2.6l-1,4.4l-1-0.2
			c-4.5-1.1-9.7-1.9-14.4-1.9c-2.4,0-9.6,0.5-9.6,4.4c0,3.1,4.4,3.6,11.6,4c7.3,0.3,16.4,0.7,16.4,8.3
			C132.9,51.7,126.6,55.2,115.6,55.2z"/>
	</g>
	<g>
		<path fill="#FFFFFF" d="M141.4,54.6h-5.1V33l5.1-0.6V54.6z M141.4,29.7l-5.1,0.7v-6l5.1-0.7V29.7z"/>
	</g>
	<g>
		<path fill="#FFFFFF" d="M151.5,54.6h-5.1V22l5.1-0.8V54.6z"/>
	</g>
	<g>
		<path fill="#FFFFFF" d="M161.5,54.6h-5.1V33l5.1-0.6V54.6z M161.5,29.7l-5.1,0.7v-6l5.1-0.7V29.7z"/>
	</g>
	<g>
		<path fill="#FFFFFF" d="M180.8,55.2c-10.3,0-16.3-4.4-16.3-12c0-7.6,5.9-11.9,16.3-11.9c6.1,0,11.4,2.6,11.4,2.6l-1,4.4
			c0,0-4.5-2.3-10.3-2.3c-7.6,0-10.7,2.5-10.7,7.2c0,4.7,3,7,10.5,7c4.4,0,8.1-0.9,9.6-1.4l1-0.3l1,4.5
			C192.3,52.9,186.9,55.2,180.8,55.2z"/>
	</g>
	<g>
		<path fill="#FFFFFF" d="M211,55.2c-9.9,0-16.3-4.7-16.3-12c0-7.3,6.4-11.9,16.3-11.9c9.9,0,16.3,4.7,16.3,11.9
			C227.3,50.5,220.9,55.2,211,55.2z M211,36.2c-6.7,0-10.5,2.9-10.5,7.3c0,4.3,3.8,6.8,10.5,6.8c6.6,0,10.5-2.7,10.5-7.1
			C221.5,38.8,217.7,36.2,211,36.2z"/>
	</g>
	<path fill="#FFFFFF" d="M262.8,31.8c1.7,0,3,1.3,3,3c0,1.7-1.3,3-3,3c-1.7,0-3-1.3-3-3C259.8,33.1,261.1,31.8,262.8,31.8
		L262.8,31.8z M262.8,32.2c-1.3,0-2.4,1.1-2.4,2.6c0,1.4,1.1,2.6,2.4,2.6c1.3,0,2.4-1.1,2.4-2.6C265.2,33.4,264.2,32.2,262.8,32.2
		L262.8,32.2z M262.2,36.5h-0.5v-3.4c0.3,0,0.6-0.1,1-0.1c0.5,0,0.8,0.1,1,0.3c0.2,0.1,0.3,0.4,0.3,0.7c0,0.4-0.3,0.7-0.7,0.8v0
		c0.3,0.1,0.5,0.3,0.6,0.8c0.1,0.5,0.2,0.7,0.2,0.8h-0.6c-0.1-0.1-0.2-0.4-0.2-0.9c-0.1-0.4-0.3-0.6-0.7-0.6h-0.4V36.5z M262.2,34.7
		h0.4c0.4,0,0.8-0.2,0.8-0.6c0-0.3-0.2-0.6-0.8-0.6c-0.2,0-0.3,0-0.4,0V34.7z"/>
</g>
<path fill="#FFFFFF" d="M245.4,31.3c-3.1,0-6.4,0.7-9.7,2v-2l-2.2,0.3l-2.8,0.3v0.1l0,0v22.5l0,0l5.1,0V38.1
	c3.7-1.3,6.8-1.9,9.5-1.9c5.4,0,7.6,2.3,7.6,6.9v11.5h5.1V43.1C257.9,35.6,253.3,31.3,245.4,31.3z"/>
</svg>
